HIERARCHY
ROOT reference
{
  OFFSET 0 0 0
  CHANNELS 6 Xposition Yposition Zposition Zrotation Xrotation Yrotation
  JOINT Hips
  {
    OFFSET -7.77439 66.0199 90.6983
    CHANNELS 6 Xposition Yposition Zposition Zrotation Xrotation Yrotation
    JOINT Spine
    {
      OFFSET 0 7.52385 0
      CHANNELS 6 Xposition Yposition Zposition Zrotation Xrotation Yrotation
      JOINT Spine1
      {
        OFFSET 0 21.7843 0
        CHANNELS 6 Xposition Yposition Zposition Zrotation Xrotation Yrotation
        JOINT Neck
        {
          OFFSET 0 21.6948 1.97225
          CHANNELS 6 Xposition Yposition Zposition Zrotation Xrotation Yrotation
          JOINT Head
          {
            OFFSET 0 12.8456 -1.83509
            CHANNELS 6 Xposition Yposition Zposition Zrotation Xrotation Yrotation
            End Site
            {
              OFFSET 0 22.9386 0
            }
          }
        }
        JOINT LeftShoulder
        {
          OFFSET 3.65748 19.7052 -0.211895
          CHANNELS 6 Xposition Yposition Zposition Zrotation Xrotation Yrotation
          JOINT LeftArm
          {
            OFFSET 11.1953 0 0
            CHANNELS 6 Xposition Yposition Zposition Zrotation Xrotation Yrotation
            JOINT LeftForeArm
            {
              OFFSET 29.6607 0 0
              CHANNELS 6 Xposition Yposition Zposition Zrotation Xrotation Yrotation
              JOINT LeftHand
              {
                OFFSET 23.3476 0 0
                CHANNELS 6 Xposition Yposition Zposition Zrotation Xrotation Yrotation
                End Site
                {
                  OFFSET 13.7631 0 0
                }
              }
            }
          }
        }
        JOINT RightShoulder
        {
          OFFSET -3.68053 19.7052 -0.211895
          CHANNELS 6 Xposition Yposition Zposition Zrotation Xrotation Yrotation
          JOINT RightArm
          {
            OFFSET -11.1953 0 0
            CHANNELS 6 Xposition Yposition Zposition Zrotation Xrotation Yrotation
            JOINT RightForeArm
            {
              OFFSET -29.6607 0 0
              CHANNELS 6 Xposition Yposition Zposition Zrotation Xrotation Yrotation
              JOINT RightHand
              {
                OFFSET -23.3476 0 0
                CHANNELS 6 Xposition Yposition Zposition Zrotation Xrotation Yrotation
                End Site
                {
                  OFFSET -13.7631 0 0
                }
              }
            }
          }
        }
      }
    }
    JOINT LeftUpLeg
    {
      OFFSET 9.17543 0 0
      CHANNELS 6 Xposition Yposition Zposition Zrotation Xrotation Yrotation
      JOINT LeftLeg
      {
        OFFSET 0 -39.1216 0
        CHANNELS 6 Xposition Yposition Zposition Zrotation Xrotation Yrotation
        JOINT LeftFoot
        {
          OFFSET 0 -35.3569 0
          CHANNELS 6 Xposition Yposition Zposition Zrotation Xrotation Yrotation
          JOINT LeftToeBase
          {
            OFFSET 0 -5.96403 13.7631
            CHANNELS 6 Xposition Yposition Zposition Zrotation Xrotation Yrotation
            End Site
            {
              OFFSET 0 0 3.67017
            }
          }
        }
      }
    }
    JOINT RightUpLeg
    {
      OFFSET -9.17543 0 0
      CHANNELS 6 Xposition Yposition Zposition Zrotation Xrotation Yrotation
      JOINT RightLeg
      {
        OFFSET 0 -39.1216 0
        CHANNELS 6 Xposition Yposition Zposition Zrotation Xrotation Yrotation
        JOINT RightFoot
        {
          OFFSET 0 -35.3569 0
          CHANNELS 6 Xposition Yposition Zposition Zrotation Xrotation Yrotation
          JOINT RightToeBase
          {
            OFFSET 0 -5.96403 13.7631
            CHANNELS 6 Xposition Yposition Zposition Zrotation Xrotation Yrotation
            End Site
            {
              OFFSET 0 0 3.67017
            }
          }
        }
      }
    }
  }
}
MOTION
Frames:	6
Frame Time:	0.004
0 0 0 0 0 -0 -12.4417 74.9493 -215.605 -0.61747 -15.1095 1.21306 0 7.52385 0 2.08429 10.189 -1.27416 0 21.7843 0 -0.0382 -2.64519 -1.08922 1.77636e-015 21.6948 1.97225 -1.52969 8.23263 -2.87758 -3.55271e-015 12.8456 -1.83509 1.11713 7.76264 -2.79764 3.65748 19.7052 -0.211895 18.0452 -2.18827 -2.14638 11.1953 0 0 -22.6739 9.03748 -0.878829 29.6607 0 0 3.09149 -1.46039 -0.963482 23.3476 0 0 5.02091 -1.48462 -1.13908 -3.68053 19.7052 -0.211895 -17.2582 0.635403 -0.535541 -11.1953 0 -2.84217e-014 24.8193 9.49154 5.91562 -29.6607 1.42109e-014 0 -4.65627 -5.48535 5.13025 -23.3476 0 -2.84217e-014 0.11217 -5.27656 4.08062 9.17543 2.84217e-014 -2.84217e-014 8.59376 15.255 0.58221 -3.55271e-015 -39.1216 0 -1.1461 6.3149 2.95004 0 -35.3569 0 -2.48815 -8.65479 10.1277 -1.42109e-014 -5.96403 13.7631 0 0 -0 -9.17543 0 0 -7.39124 15.9179 5.02883 0 -39.1216 2.84217e-014 1.13769 3.50118 -0.087009 -1.77636e-015 -35.3569 -2.84217e-014 4.57516 -7.58501 -24.8929 -1.42109e-014 -5.96403 13.7631 1.98626e-031 1.19271e-015 -9.54166e-015 
0 0 0 0 0 -0 -12.4338 74.9493 -215.582 -0.591329 -15.1466 1.26986 1.77636e-015 7.52385 0 2.12584 10.1931 -1.3298 -1.77636e-015 21.7843 -2.84217e-014 -0.104367 -2.65722 -1.14261 1.77636e-015 21.6948 1.97225 -1.5876 8.30954 -2.84916 -3.55271e-015 12.8456 -1.83509 1.17422 7.71663 -2.76004 3.65748 19.7052 -0.211895 18.0074 -2.15979 -2.13037 11.1953 0 0 -22.6384 9.06191 -0.85636 29.6607 1.42109e-014 2.84217e-014 3.09166 -1.45 -0.963478 23.3476 0 0 5.02111 -1.47433 -1.13908 -3.68053 19.7052 -0.211895 -17.2476 0.656839 -0.450251 -11.1953 -2.84217e-014 -2.84217e-014 24.8509 9.44844 5.89906 -29.6607 1.42109e-014 0 -4.63106 -5.47424 5.10055 -23.3476 0 0 -0.0523857 -5.2766 4.0745 9.17543 2.84217e-014 0 8.57761 15.3155 0.524829 3.55271e-015 -39.1216 0 -1.14484 6.28105 2.93896 -3.55271e-015 -35.3569 0 -2.43825 -8.65479 10.1277 0 -5.96403 13.7631 5.96354e-016 3.97569e-016 -6.36111e-015 -9.17543 0 0 -7.41803 16.0027 4.97696 -3.55271e-015 -39.1216 -2.84217e-014 1.1511 3.46227 -0.072751 0 -35.3569 0 4.58571 -7.61308 -24.9056 -2.84217e-014 -5.96403 13.7631 1.98785e-016 -3.97569e-016 3.18055e-015 
0 0 0 0 0 -0 -12.4174 74.9493 -215.588 -0.579737 -15.1577 1.22697 3.55271e-015 7.52385 2.84217e-014 2.0833 10.2085 -1.27545 1.77636e-015 21.7843 -2.84217e-014 -0.021984 -2.63004 -1.08987 -1.77636e-015 21.6948 1.97225 -1.59521 8.23796 -2.87559 -3.55271e-015 12.8456 -1.83509 1.11819 7.75649 -2.79062 3.65748 19.7052 -0.211895 17.9678 -2.18434 -2.16665 11.1953 0 -2.84217e-014 -22.6611 9.04865 -0.870735 29.6607 1.42109e-014 0 3.09149 -1.45317 -0.968241 23.3476 2.84217e-014 0 5.00464 -1.47681 -1.13908 -3.68053 19.7052 -0.211895 -17.3069 0.64756 -0.542844 -11.1953 -2.84217e-014 2.84217e-014 24.8417 9.47842 5.92364 -29.6607 0 0 -4.62357 -5.48184 5.10593 -23.3476 0 2.84217e-014 -0.00598698 -5.2767 4.05828 9.17543 0 0 8.5286 15.3354 0.549509 0 -39.1216 0 -1.12128 6.27125 2.98203 0 -35.3569 -2.84217e-014 -2.45654 -8.655 10.1195 0 -5.96403 13.7631 7.95139e-016 0 -0 -9.17543 0 2.84217e-014 -7.46318 15.9786 4.98315 0 -39.1216 -2.84217e-014 1.16374 3.50295 -0.021389 -1.77636e-015 -35.3569 0 4.60596 -7.63119 -24.8962 0 -5.96403 13.7631 1.98785e-016 0 -0 
0 0 0 0 0 -0 -12.436 74.9493 -215.579 -0.584365 -15.1534 1.28849 0 7.52385 2.84217e-014 2.06172 10.1684 -1.30192 0 21.7843 0 0.017463 -2.60112 -1.11805 0 21.6948 1.97225 -1.6256 8.26126 -2.87463 0 12.8456 -1.83509 1.15001 7.72523 -2.78498 3.65748 19.7052 -0.211895 17.9714 -2.18797 -2.16825 11.1953 0 0 -22.6685 9.06332 -0.88192 29.6607 1.42109e-014 0 3.08101 -1.45238 -0.949173 23.3476 0 0 5.00033 -1.47644 -1.15663 -3.68053 19.7052 -0.211895 -17.3191 0.647884 -0.544843 -11.1953 0 0 24.8568 9.44875 5.93688 -29.6607 -1.42109e-014 2.84217e-014 -4.60957 -5.4807 5.08507 -23.3476 0 0 -0.018269 -5.27746 4.04958 9.17543 -2.84217e-014 0 8.58094 15.3196 0.516587 3.55271e-015 -39.1216 -2.84217e-014 -1.15428 6.28009 2.95967 7.10543e-015 -35.3569 2.84217e-014 -2.46962 -8.6551 10.1158 1.42109e-014 -5.96403 13.7631 -3.97569e-016 3.97569e-016 -0 -9.17543 0 0 -7.41238 16.0118 4.96296 0 -39.1216 0 1.13646 3.47163 -0.075447 3.55271e-015 -35.3569 0 4.59513 -7.61398 -24.895 0 -5.96403 13.7631 1.98785e-016 3.97569e-016 -3.18055e-015 
0 0 0 0 0 -0 -12.4341 74.9493 -215.577 -0.582215 -15.1558 1.29026 0 7.52385 2.84217e-014 2.07191 10.1663 -1.30379 0 21.7843 2.84217e-014 0.004783 -2.6038 -1.11936 1.77636e-015 21.6948 1.97225 -1.60219 8.25017 -2.86312 0 12.8456 -1.83509 1.11459 7.74578 -2.77744 3.65748 19.7052 -0.211895 17.9666 -2.1679 -2.17113 11.1953 2.84217e-014 0 -22.659 9.04923 -0.896236 29.6607 0 0 3.07638 -1.45222 -0.953089 23.3476 -2.84217e-014 0 4.99503 -1.47684 -1.15057 -3.68053 19.7052 -0.211895 -17.3118 0.649387 -0.53912 -11.1953 0 0 24.8726 9.45367 5.92477 -29.6607 0 0 -4.65609 -5.51284 5.09943 -23.3476 0 0 0.381309 -5.29251 4.16912 9.17543 0 0 8.57469 15.3197 0.522952 0 -39.1216 0 -1.14504 6.28073 2.9499 0 -35.3569 0 -2.43907 -8.6553 10.1082 0 -5.96403 13.7631 1.98785e-016 0 -3.18055e-015 -9.17543 0 -2.84217e-014 -7.42102 16.015 4.97601 3.55271e-015 -39.1216 0 1.15085 3.47348 -0.07324 -1.77636e-015 -35.3569 -2.84217e-014 4.58112 -7.61878 -24.9168 0 -5.96403 13.7631 0 0 -0 
0 0 0 0 0 -0 -12.435 74.9493 -215.576 -0.579613 -15.163 1.29833 -1.77636e-015 7.52385 0 2.06498 10.1651 -1.30527 0 21.7843 -2.84217e-014 0.007725 -2.59123 -1.11994 0 21.6948 1.97225 -1.60855 8.25596 -2.87134 0 12.8456 -1.83509 1.12475 7.71744 -2.78458 3.65748 19.7052 -0.211895 17.9803 -2.17312 -2.17232 11.1953 0 2.84217e-014 -22.6824 9.0529 -0.894708 29.6607 1.42109e-014 0 3.08422 -1.45928 -0.947175 23.3476 2.84217e-014 -2.84217e-014 4.99157 -1.48386 -1.14968 -3.68053 19.7052 -0.211895 -17.3023 0.651352 -0.549858 -11.1953 0 2.84217e-014 24.8671 9.43946 5.93068 -29.6607 -1.42109e-014 0 -4.6365 -5.50944 5.09032 -23.3476 0 2.84217e-014 0.359911 -5.29114 4.16199 9.17543 -2.84217e-014 0 8.57021 15.3207 0.519977 -3.55271e-015 -39.1216 2.84217e-014 -1.14613 6.26491 2.97925 0 -35.3569 -2.84217e-014 -2.49756 -8.65599 10.0821 0 -5.96403 13.7631 -1.19271e-015 7.95139e-016 -6.36111e-015 -9.17543 0 0 -7.42807 16.0204 4.99089 0 -39.1216 0 1.15574 3.48839 -0.078834 1.77636e-015 -35.3569 0 4.58739 -7.63546 -24.9326 0 -5.96403 13.7631 -3.97569e-016 0 -3.18055e-015 
